<svg width="62" height="26" viewBox="0 0 62 26" fill="none" xmlns="http://www.w3.org/2000/svg">
<rect x="0.333252" width="61" height="26" rx="8" fill="#0E253C" fill-opacity="0.05"/>
<rect x="0.833252" y="0.5" width="60" height="25" rx="7.5" stroke="#0E253C" stroke-opacity="0.1"/>
<g clip-path="url(#clip0_38_22806)">
<path d="M36.7252 16.9372C33.8811 18.9217 29.7588 19.9804 26.2096 19.9804C21.233 19.9804 16.7528 18.238 13.3633 15.34C13.097 15.1121 13.3356 14.8016 13.6552 14.979C17.3131 16.9937 21.8359 18.2057 26.5078 18.2057C29.6587 18.2057 33.1248 17.5886 36.3119 16.308C36.7934 16.1144 37.196 16.6065 36.7252 16.9372Z" fill="#FF9900"/>
<path d="M37.9075 15.6566C37.5454 15.217 35.5044 15.4489 34.5884 15.5518C34.3093 15.584 34.2667 15.3541 34.5181 15.1888C36.1436 14.1058 38.8108 14.4184 39.1218 14.7814C39.4329 15.1464 39.0409 17.6774 37.5134 18.8853C37.2791 19.0709 37.0554 18.9721 37.1598 18.726C37.5027 17.9153 38.2718 16.0983 37.9075 15.6566Z" fill="#FF9900"/>
<path d="M34.6527 7.54352V6.49081C34.6527 6.33149 34.7806 6.22461 34.9339 6.22461H39.9127C40.0724 6.22461 40.2003 6.33351 40.2003 6.49081V7.39227C40.1981 7.54352 40.0639 7.74115 39.8253 8.05374L37.2454 11.5406C38.2041 11.5184 39.216 11.6535 40.0852 12.1173C40.2812 12.2222 40.3345 12.3755 40.3494 12.5267V13.65C40.3494 13.8033 40.1704 13.9828 39.983 13.89C38.4512 13.1297 36.4167 13.047 34.723 13.8981C34.5505 13.9868 34.3694 13.8093 34.3694 13.6561V12.5893C34.3694 12.4178 34.3715 12.1254 34.5526 11.8653L37.5415 7.8077H34.9403C34.7806 7.8077 34.6527 7.70082 34.6527 7.54352Z" fill="#010D19"/>
<path d="M16.4906 14.1119H14.9759C14.831 14.1018 14.716 13.999 14.7053 13.8679V6.50901C14.7053 6.36179 14.8353 6.24482 14.9972 6.24482H16.4096C16.5566 6.25087 16.6738 6.35776 16.6845 6.49086V7.45282H16.7122C17.0807 6.52312 17.7731 6.08954 18.7062 6.08954C19.6542 6.08954 20.2465 6.52312 20.6725 7.45282C21.039 6.52312 21.872 6.08954 22.7646 6.08954C23.3994 6.08954 24.094 6.33759 24.5179 6.89419C24.9972 7.51331 24.8992 8.41275 24.8992 9.20128L24.8971 13.8457C24.8971 13.9929 24.7672 14.1119 24.6052 14.1119H23.0927C22.9414 14.1018 22.82 13.9869 22.82 13.8457V9.94543C22.82 9.63486 22.8498 8.86046 22.7774 8.56602C22.6645 8.07194 22.3257 7.93278 21.8869 7.93278C21.5204 7.93278 21.137 8.1647 20.9815 8.53577C20.8259 8.90684 20.8408 9.52798 20.8408 9.94543V13.8457C20.8408 13.9929 20.7109 14.1119 20.549 14.1119H19.0364C18.883 14.1018 18.7637 13.9869 18.7637 13.8457L18.7616 9.94543C18.7616 9.12464 18.9043 7.91665 17.8285 7.91665C16.7398 7.91665 16.7825 9.09439 16.7825 9.94543V13.8457C16.7825 13.9929 16.6525 14.1119 16.4906 14.1119Z" fill="#010D19"/>
<path d="M44.4863 6.08954C46.7338 6.08954 47.9503 7.91665 47.9503 10.2399C47.9503 12.4844 46.606 14.2652 44.4863 14.2652C42.2792 14.2652 41.0776 12.438 41.0776 10.1612C41.0776 7.87027 42.2941 6.08954 44.4863 6.08954ZM44.499 7.59197C43.3827 7.59197 43.3124 9.03187 43.3124 9.9293C43.3124 10.8287 43.2975 12.7486 44.4863 12.7486C45.6601 12.7486 45.7155 11.1998 45.7155 10.256C45.7155 9.63486 45.6878 8.89272 45.4897 8.30385C45.3192 7.79162 44.9805 7.59197 44.499 7.59197Z" fill="#010D19"/>
<path d="M50.8644 14.1119H49.3561C49.2049 14.1018 49.0834 13.9869 49.0834 13.8457L49.0813 6.48481C49.0941 6.34969 49.2198 6.24482 49.3732 6.24482H50.7771C50.9092 6.25087 51.0178 6.33557 51.0476 6.45052V7.57583H51.0753C51.4993 6.56951 52.0937 6.08954 53.1397 6.08954C53.8193 6.08954 54.4818 6.32146 54.9079 6.95671C55.3042 7.54558 55.3042 8.53577 55.3042 9.24766V13.88C55.2871 14.009 55.1614 14.1119 55.0123 14.1119H53.4933C53.3549 14.1018 53.2398 14.005 53.2249 13.88V9.88292C53.2249 9.07826 53.3229 7.90052 52.2769 7.90052C51.9083 7.90052 51.5696 8.13445 51.4013 8.48939C51.1883 8.93911 51.1606 9.38681 51.1606 9.88292V13.8457C51.1584 13.9929 51.0263 14.1119 50.8644 14.1119Z" fill="#010D19"/>
<path d="M30.6834 10.5968V10.2862C29.5884 10.2862 28.4316 10.5081 28.4316 11.7302C28.4316 12.3493 28.7703 12.7688 29.3519 12.7688C29.778 12.7688 30.1593 12.5207 30.4 12.1174C30.6983 11.6213 30.6834 11.1554 30.6834 10.5968ZM32.2109 14.0917C32.1107 14.1764 31.9659 14.1824 31.853 14.126C31.3502 13.7307 31.2607 13.5472 30.9838 13.1701C30.1529 13.9727 29.5649 14.2127 28.4869 14.2127C27.213 14.2127 26.2202 13.4685 26.2202 11.9782C26.2202 10.8146 26.887 10.022 27.8351 9.63483C28.6574 9.29199 29.8057 9.23149 30.6834 9.13671V8.95117C30.6834 8.61035 30.7111 8.20702 30.5002 7.91258C30.3148 7.6484 29.9612 7.5395 29.6501 7.5395C29.0728 7.5395 28.5573 7.81982 28.4316 8.40062C28.406 8.52969 28.3059 8.65674 28.1695 8.66279L26.6996 8.51355C26.576 8.48734 26.4396 8.39255 26.4737 8.21307C26.8125 6.52713 28.4209 6.01892 29.8611 6.01892C30.5982 6.01892 31.5611 6.20446 32.1427 6.73283C32.8798 7.38421 32.8095 8.2534 32.8095 9.19923V11.4337C32.8095 12.1053 33.1035 12.3997 33.3805 12.7627C33.4785 12.8918 33.4998 13.0471 33.3762 13.1439C33.0673 13.3879 32.5176 13.8416 32.2151 14.0957L32.2109 14.0917Z" fill="#010D19"/>
<path d="M10.8257 10.5969V10.2863C9.7307 10.2863 8.57389 10.5082 8.57389 11.7303C8.57389 12.3494 8.91263 12.7689 9.49422 12.7689C9.9203 12.7689 10.3016 12.5208 10.5424 12.1175C10.8406 11.6214 10.8257 11.1555 10.8257 10.5969ZM12.3532 14.0918C12.2531 14.1765 12.1082 14.1826 11.9953 14.1261C11.4925 13.7308 11.4031 13.5473 11.1261 13.1702C10.2952 13.9728 9.70726 14.2128 8.62928 14.2128C7.35531 14.2128 6.36255 13.4687 6.36255 11.9783C6.36255 10.8147 7.02936 10.0222 7.97738 9.63495C8.79971 9.29211 9.948 9.23162 10.8257 9.13683V8.9513C10.8257 8.61048 10.8534 8.20714 10.6425 7.91271C10.4572 7.64852 10.1035 7.53962 9.79248 7.53962C9.21514 7.53962 8.69959 7.81994 8.57389 8.40074C8.54833 8.52981 8.4482 8.65686 8.31186 8.66291L6.84189 8.51368C6.71832 8.48746 6.58198 8.39268 6.61606 8.21319C6.9548 6.52725 8.56324 6.01904 10.0034 6.01904C10.7405 6.01904 11.7034 6.20458 12.285 6.73295C13.0221 7.38434 12.9518 8.25352 12.9518 9.19935V11.4338C12.9518 12.1054 13.2458 12.3998 13.5228 12.7628C13.6208 12.8919 13.6421 13.0472 13.5185 13.144C13.2096 13.388 12.66 13.8417 12.3575 14.0958L12.3532 14.0918Z" fill="#010D19"/>
</g>
<defs>
<clipPath id="clip0_38_22806">
<rect width="49" height="14" fill="white" transform="translate(6.33325 6)"/>
</clipPath>
</defs>
</svg>
