<svg width="20" height="20" viewBox="0 0 20 20" fill="none" xmlns="http://www.w3.org/2000/svg">
<path d="M1.72341 4.56833L9.11925 11.965C9.33804 12.1839 9.63028 12.3139 9.93941 12.3298C10.2485 12.3456 10.5525 12.2462 10.7926 12.0508L10.8876 11.965L18.2784 4.57333C18.3026 4.66499 18.3184 4.75833 18.3267 4.85416L18.3334 4.99999V15C18.3335 15.4205 18.1747 15.8255 17.8888 16.1338C17.6029 16.4421 17.211 16.631 16.7917 16.6625L16.6667 16.6667H3.33341C2.91293 16.6668 2.50794 16.508 2.19962 16.2221C1.89131 15.9362 1.70245 15.5443 1.67091 15.125L1.66675 15V4.99999C1.66675 4.89999 1.67508 4.80333 1.69175 4.70833L1.72341 4.56833ZM16.6667 3.33333C16.7676 3.33333 16.8667 3.34166 16.9626 3.35916L17.1042 3.39166L10.0042 10.4917L2.90175 3.38999C2.99341 3.36499 3.08841 3.34833 3.18508 3.33999L3.33341 3.33333H16.6667Z" fill="white"/>
</svg>
