<svg width="24" height="24" viewBox="0 0 24 24" fill="none" xmlns="http://www.w3.org/2000/svg">
<rect width="24" height="24" rx="12" fill="white" fill-opacity="0.13"/>
<path d="M8.7732 11.3147C9.39122 10.5855 10.2182 10.0637 11.1424 9.81979C12.0666 9.57589 13.0434 9.62167 13.9408 9.95094C14.8381 10.2802 15.6127 10.8771 16.1598 11.6608C16.7069 12.4446 17.0001 13.3775 16.9999 14.3333C16.9999 14.5985 17.1052 14.8529 17.2928 15.0404C17.4803 15.228 17.7347 15.3333 17.9999 15.3333C18.2651 15.3333 18.5194 15.228 18.707 15.0404C18.8945 14.8529 18.9999 14.5985 18.9999 14.3333C18.9999 10.6513 16.0152 7.66667 12.3332 7.66667C11.401 7.66565 10.4789 7.86069 9.62695 8.23913C8.77497 8.61756 8.0121 9.17094 7.38787 9.86333L7.15653 8.55333C7.13606 8.42194 7.08959 8.29595 7.01984 8.18274C6.95008 8.06952 6.85845 7.97136 6.7503 7.89399C6.64215 7.81661 6.51965 7.76159 6.38998 7.73213C6.2603 7.70268 6.12605 7.69938 5.99509 7.72243C5.86413 7.74549 5.73908 7.79443 5.62726 7.8664C5.51544 7.93836 5.41909 8.03191 5.34386 8.14156C5.26863 8.25122 5.21603 8.37477 5.18913 8.505C5.16223 8.63523 5.16158 8.76951 5.1872 8.9L5.88187 12.84C5.92787 13.1007 6.0752 13.3333 6.2932 13.4853C6.56187 13.6733 6.91587 13.7153 7.21653 13.62L10.9792 12.956C11.1106 12.9355 11.2366 12.8891 11.3498 12.8193C11.463 12.7495 11.5612 12.6579 11.6385 12.5498C11.7159 12.4416 11.7709 12.3191 11.8004 12.1894C11.8299 12.0598 11.8332 11.9255 11.8101 11.7946C11.787 11.6636 11.7381 11.5385 11.6661 11.4267C11.5942 11.3149 11.5006 11.2186 11.391 11.1433C11.2813 11.0681 11.1578 11.0155 11.0275 10.9886C10.8973 10.9617 10.763 10.961 10.6325 10.9867L8.77387 11.314L8.7732 11.3147Z" fill="white" fill-opacity="0.65"/>
</svg>
