<svg width="20" height="20" viewBox="0 0 20 20" fill="none" xmlns="http://www.w3.org/2000/svg">
<g clip-path="url(#clip0_38_22261)">
<path d="M10.0001 1.66667C14.6026 1.66667 18.3334 5.39751 18.3334 10C18.3334 14.6025 14.6026 18.3333 10.0001 18.3333H3.33341C2.89139 18.3333 2.46746 18.1577 2.1549 17.8452C1.84234 17.5326 1.66675 17.1087 1.66675 16.6667V10C1.66675 5.39751 5.39758 1.66667 10.0001 1.66667ZM10.0001 11.6667H7.50008C7.27907 11.6667 7.06711 11.7545 6.91083 11.9108C6.75455 12.067 6.66675 12.279 6.66675 12.5C6.66675 12.721 6.75455 12.933 6.91083 13.0893C7.06711 13.2455 7.27907 13.3333 7.50008 13.3333H10.0001C10.2211 13.3333 10.4331 13.2455 10.5893 13.0893C10.7456 12.933 10.8334 12.721 10.8334 12.5C10.8334 12.279 10.7456 12.067 10.5893 11.9108C10.4331 11.7545 10.2211 11.6667 10.0001 11.6667ZM12.5001 8.33334H7.50008C7.28768 8.33357 7.08339 8.4149 6.92894 8.56071C6.77449 8.70652 6.68155 8.9058 6.6691 9.11783C6.65666 9.32987 6.72564 9.53865 6.86197 9.70153C6.99829 9.86441 7.19167 9.96909 7.40258 9.99417L7.50008 10H12.5001C12.7125 9.99977 12.9168 9.91844 13.0712 9.77263C13.2257 9.62682 13.3186 9.42754 13.3311 9.21551C13.3435 9.00348 13.2745 8.79469 13.1382 8.63181C13.0019 8.46893 12.8085 8.36426 12.5976 8.33917L12.5001 8.33334Z" fill="white"/>
</g>
<defs>
<clipPath id="clip0_38_22261">
<rect width="20" height="20" fill="white"/>
</clipPath>
</defs>
</svg>
