<svg width="20" height="20" viewBox="0 0 20 20" fill="none" xmlns="http://www.w3.org/2000/svg">
<path d="M5.71429 2.0375C6.66679 2.73166 7.40845 3.67916 8.04179 4.58583L8.41012 5.1225L8.75762 5.635C8.93144 5.88894 9.00576 6.19795 8.96642 6.50316C8.92707 6.80837 8.77682 7.08844 8.54429 7.29L6.91845 8.4975C6.8399 8.55422 6.78461 8.63752 6.76285 8.73193C6.74109 8.82634 6.75433 8.92545 6.80012 9.01083C7.16845 9.68 7.82345 10.6767 8.57345 11.4267C9.32429 12.1767 10.3676 12.875 11.0835 13.285C11.1732 13.3354 11.2788 13.3495 11.3787 13.3244C11.4785 13.2992 11.5649 13.2368 11.6201 13.15L12.6785 11.5392C12.873 11.2807 13.1601 11.1076 13.4794 11.056C13.7988 11.0044 14.1258 11.0784 14.3918 11.2625L14.9443 11.645C15.9768 12.3617 17.086 13.1758 17.9343 14.2617C18.0688 14.4348 18.1544 14.6409 18.1821 14.8585C18.2098 15.076 18.1786 15.297 18.0918 15.4983C17.3943 17.1258 15.6293 18.5117 13.7935 18.4442L13.5435 18.43L13.3493 18.4133L13.1343 18.3883L12.9001 18.3567L12.646 18.315C12.6015 18.307 12.557 18.2986 12.5126 18.29L12.2326 18.23C12.1837 18.2192 12.1348 18.2081 12.086 18.1967L11.781 18.1183L11.4601 18.0267L11.1251 17.9183C9.58679 17.3967 7.63429 16.3717 5.63095 14.3683C3.62845 12.3658 2.60345 10.4133 2.08179 8.875L1.97345 8.54L1.88179 8.21916L1.80345 7.91416L1.73845 7.62583C1.71968 7.53552 1.70218 7.44496 1.68595 7.35416L1.64429 7.1L1.61095 6.86583L1.58679 6.65083L1.57012 6.45666L1.55679 6.20666C1.48929 4.37666 2.89012 2.59916 4.51012 1.905C4.7051 1.8208 4.91862 1.78875 5.12973 1.81198C5.34084 1.83521 5.54228 1.91292 5.71429 2.0375ZM12.4935 5.03333L12.5901 5.04416C13.1967 5.15116 13.7539 5.44745 14.1817 5.89056C14.6095 6.33367 14.8861 6.90086 14.9718 7.51083C15.0023 7.72181 14.9509 7.93648 14.8279 8.11067C14.705 8.28485 14.5201 8.40531 14.311 8.44727C14.102 8.48922 13.8849 8.44947 13.7043 8.3362C13.5237 8.22293 13.3934 8.04476 13.3401 7.83833L13.321 7.7425C13.2874 7.50341 13.1854 7.27915 13.0271 7.09682C12.8689 6.91448 12.6613 6.78186 12.4293 6.715L12.3001 6.68583C12.0909 6.64874 11.9037 6.53311 11.7769 6.36258C11.6501 6.19206 11.5932 5.97952 11.6179 5.76845C11.6426 5.55738 11.747 5.36371 11.9097 5.22706C12.0725 5.09042 12.2813 5.02112 12.4935 5.03333ZM12.5001 2.5C13.8262 2.5 15.098 3.02678 16.0357 3.96446C16.9733 4.90214 17.5001 6.17391 17.5001 7.5C17.4999 7.7124 17.4186 7.91669 17.2727 8.07114C17.1269 8.22558 16.9277 8.31853 16.7156 8.33097C16.5036 8.34342 16.2948 8.27443 16.1319 8.13811C15.969 8.00178 15.8644 7.80841 15.8393 7.5975L15.8335 7.5C15.8338 6.65368 15.512 5.83896 14.9334 5.22127C14.3549 4.60357 13.563 4.2292 12.7185 4.17416L12.5001 4.16666C12.2791 4.16666 12.0671 4.07887 11.9109 3.92259C11.7546 3.7663 11.6668 3.55434 11.6668 3.33333C11.6668 3.11232 11.7546 2.90035 11.9109 2.74407C12.0671 2.58779 12.2791 2.5 12.5001 2.5Z" fill="white"/>
</svg>
