<svg width="28" height="28" viewBox="0 0 28 28" fill="none" xmlns="http://www.w3.org/2000/svg">
<rect x="0.5" y="0.5" width="27" height="27" rx="13.5" stroke="white" stroke-opacity="0.13"/>
<g clip-path="url(#clip0_38_22368)">
<path fill-rule="evenodd" clip-rule="evenodd" d="M18.6667 8C19.0203 8 19.3594 8.14048 19.6095 8.39052C19.8595 8.64057 20 8.97971 20 9.33333V18.6667C20 19.0203 19.8595 19.3594 19.6095 19.6095C19.3594 19.8595 19.0203 20 18.6667 20H9.33333C8.97971 20 8.64057 19.8595 8.39052 19.6095C8.14048 19.3594 8 19.0203 8 18.6667V9.33333C8 8.97971 8.14048 8.64057 8.39052 8.39052C8.64057 8.14048 8.97971 8 9.33333 8H18.6667ZM11.3333 9.33333H9.33333V18.6667H11.3333V9.33333ZM14.5287 12.1147C14.4037 12.2397 14.3335 12.4092 14.3335 12.586C14.3335 12.7628 14.4037 12.9323 14.5287 13.0573L15.4713 14L14.5287 14.9427C14.465 15.0042 14.4142 15.0777 14.3793 15.1591C14.3443 15.2404 14.3259 15.3279 14.3252 15.4164C14.3244 15.5049 14.3413 15.5927 14.3748 15.6746C14.4083 15.7566 14.4578 15.831 14.5204 15.8936C14.583 15.9562 14.6574 16.0057 14.7394 16.0392C14.8213 16.0727 14.9091 16.0896 14.9976 16.0888C15.0861 16.0881 15.1736 16.0697 15.2549 16.0347C15.3363 15.9998 15.4098 15.949 15.4713 15.8853L16.8853 14.472C16.9473 14.4101 16.9965 14.3366 17.03 14.2556C17.0636 14.1747 17.0809 14.0879 17.0809 14.0003C17.0809 13.9127 17.0636 13.826 17.03 13.745C16.9965 13.6641 16.9473 13.5906 16.8853 13.5287L15.472 12.1147C15.4101 12.0527 15.3366 12.0035 15.2556 11.97C15.1747 11.9364 15.0879 11.9191 15.0003 11.9191C14.9127 11.9191 14.826 11.9364 14.745 11.97C14.6641 12.0035 14.5906 12.0527 14.5287 12.1147Z" fill="#8378FF"/>
</g>
<defs>
<clipPath id="clip0_38_22368">
<rect width="16" height="16" fill="white" transform="translate(6 6)"/>
</clipPath>
</defs>
</svg>
