<svg width="112" height="24" viewBox="0 0 112 24" fill="none" xmlns="http://www.w3.org/2000/svg">
<g filter="url(#filter0_d_38_23481)">
<path d="M6.16699 4H8.16699V6.41699C8.16707 6.82279 8.30765 7.21414 8.5625 7.52539L8.67969 7.6543C9.00785 7.98228 9.45302 8.16699 9.91699 8.16699H13.25C13.7141 8.16699 14.1591 7.98238 14.4873 7.6543C14.8154 7.32618 14.9999 6.881 15 6.41699V4C15.2666 4.00274 15.523 4.0969 15.7275 4.26465L15.8135 4.3418L17.8252 6.35352C18.0439 6.57224 18.1669 6.86938 18.167 7.17871V16.833C18.167 17.1037 18.0723 17.3647 17.9023 17.5723L17.8252 17.6582C17.6064 17.877 17.3094 18 17 18H15.833V12.667C15.833 12.1643 15.6585 11.6794 15.3428 11.2939L15.1992 11.1348C14.793 10.7285 14.2415 10.5001 13.667 10.5H9.5C8.99731 10.5 8.51246 10.6745 8.12695 10.9902L7.96777 11.1348C7.56155 11.5411 7.33301 12.0924 7.33301 12.667V18H6.16699C5.89627 18 5.63533 17.9054 5.42773 17.7354L5.3418 17.6582C5.123 17.4394 5 17.1424 5 16.833V5.16699C5 4.89627 5.09458 4.63533 5.26465 4.42773L5.3418 4.3418C5.53333 4.15026 5.78454 4.0323 6.05176 4.00586L6.16699 4ZM13.167 13.167V18H10V13.167H13.167ZM12.333 4V5.5H10.833V4H12.333Z" fill="#22C55E" stroke="#22C55E"/>
<path d="M36.468 7.642C36.4167 7.726 36.363 7.789 36.307 7.831C36.251 7.86833 36.181 7.887 36.097 7.887C36.0083 7.887 35.908 7.84967 35.796 7.775C35.6887 7.70033 35.5533 7.61867 35.39 7.53C35.2313 7.43667 35.0423 7.35267 34.823 7.278C34.6037 7.19867 34.3423 7.159 34.039 7.159C33.759 7.159 33.5117 7.194 33.297 7.264C33.087 7.334 32.9097 7.432 32.765 7.558C32.6203 7.684 32.5107 7.83333 32.436 8.006C32.366 8.174 32.331 8.35833 32.331 8.559C32.331 8.81567 32.3987 9.03033 32.534 9.203C32.6693 9.371 32.8467 9.51567 33.066 9.637C33.29 9.75833 33.5443 9.86567 33.829 9.959C34.1137 10.0477 34.403 10.1433 34.697 10.246C34.9957 10.3487 35.2873 10.4653 35.572 10.596C35.8567 10.7267 36.1087 10.8923 36.328 11.093C36.552 11.2937 36.7317 11.5387 36.867 11.828C37.0023 12.1173 37.07 12.4697 37.07 12.885C37.07 13.333 36.993 13.753 36.839 14.145C36.685 14.537 36.461 14.88 36.167 15.174C35.8777 15.4633 35.5183 15.692 35.089 15.86C34.6643 16.028 34.179 16.112 33.633 16.112C33.311 16.112 32.996 16.0793 32.688 16.014C32.3847 15.9533 32.093 15.867 31.813 15.755C31.5377 15.6383 31.2787 15.4983 31.036 15.335C30.7933 15.1717 30.5763 14.9897 30.385 14.789L30.861 14.005C30.903 13.9397 30.9567 13.8883 31.022 13.851C31.0873 13.8137 31.1597 13.795 31.239 13.795C31.3463 13.795 31.4653 13.8463 31.596 13.949C31.7267 14.047 31.883 14.1567 32.065 14.278C32.2517 14.3947 32.4757 14.5043 32.737 14.607C32.9983 14.705 33.311 14.754 33.675 14.754C34.2677 14.754 34.725 14.6093 35.047 14.32C35.3737 14.0307 35.537 13.6317 35.537 13.123C35.537 12.8383 35.4693 12.6073 35.334 12.43C35.1987 12.248 35.019 12.0963 34.795 11.975C34.5757 11.8537 34.3237 11.751 34.039 11.667C33.7543 11.583 33.465 11.4943 33.171 11.401C32.877 11.303 32.5877 11.191 32.303 11.065C32.0183 10.9343 31.764 10.7663 31.54 10.561C31.3207 10.351 31.1433 10.0943 31.008 9.791C30.8727 9.483 30.805 9.10033 30.805 8.643C30.805 8.279 30.875 7.92667 31.015 7.586C31.1597 7.24533 31.3673 6.94433 31.638 6.683C31.9133 6.417 32.2517 6.20467 32.653 6.046C33.0543 5.88733 33.5117 5.808 34.025 5.808C34.6037 5.808 35.1333 5.899 35.614 6.081C36.0993 6.263 36.517 6.522 36.867 6.858L36.468 7.642ZM42.2789 12.878C41.7422 12.8967 41.2895 12.941 40.9209 13.011C40.5522 13.0763 40.2535 13.1627 40.0249 13.27C39.7962 13.3727 39.6305 13.4963 39.5279 13.641C39.4299 13.7857 39.3809 13.9443 39.3809 14.117C39.3809 14.285 39.4065 14.4297 39.4579 14.551C39.5139 14.6677 39.5885 14.7657 39.6819 14.845C39.7799 14.9197 39.8919 14.9757 40.0179 15.013C40.1485 15.0457 40.2909 15.062 40.4449 15.062C40.8369 15.062 41.1729 14.9897 41.4529 14.845C41.7375 14.6957 42.0129 14.481 42.2789 14.201V12.878ZM38.2889 9.854C39.0962 9.10267 40.0575 8.727 41.1729 8.727C41.5835 8.727 41.9475 8.79467 42.2649 8.93C42.5869 9.06067 42.8552 9.24733 43.0699 9.49C43.2892 9.73267 43.4549 10.022 43.5669 10.358C43.6835 10.6893 43.7419 11.058 43.7419 11.464V16H43.0699C42.9252 16 42.8155 15.979 42.7409 15.937C42.6662 15.8903 42.6032 15.7993 42.5519 15.664L42.4049 15.083C42.2229 15.2463 42.0432 15.3933 41.8659 15.524C41.6885 15.65 41.5042 15.7573 41.3129 15.846C41.1262 15.9347 40.9232 16 40.7039 16.042C40.4892 16.0887 40.2512 16.112 39.9899 16.112C39.7005 16.112 39.4299 16.0723 39.1779 15.993C38.9305 15.9137 38.7159 15.7947 38.5339 15.636C38.3519 15.4727 38.2072 15.272 38.0999 15.034C37.9972 14.796 37.9459 14.516 37.9459 14.194C37.9459 13.9187 38.0182 13.6503 38.1629 13.389C38.3122 13.1277 38.5549 12.8943 38.8909 12.689C39.2315 12.479 39.6772 12.3063 40.2279 12.171C40.7832 12.0357 41.4669 11.9587 42.2789 11.94V11.464C42.2789 10.9507 42.1692 10.568 41.9499 10.316C41.7305 10.064 41.4085 9.938 40.9839 9.938C40.6945 9.938 40.4519 9.97533 40.2559 10.05C40.0599 10.12 39.8895 10.197 39.7449 10.281C39.6002 10.365 39.4719 10.4443 39.3599 10.519C39.2479 10.589 39.1289 10.624 39.0029 10.624C38.9002 10.624 38.8115 10.5983 38.7369 10.547C38.6669 10.491 38.6085 10.4233 38.5619 10.344L38.2889 9.854ZM51.6268 8.86L48.7568 16H47.3988L44.5288 8.86H45.7678C45.8845 8.86 45.9802 8.89033 46.0548 8.951C46.1342 9.007 46.1855 9.07467 46.2088 9.154L47.7908 13.312C47.8562 13.508 47.9145 13.7017 47.9658 13.893C48.0172 14.0843 48.0615 14.278 48.0988 14.474C48.1362 14.278 48.1805 14.0867 48.2318 13.9C48.2878 13.7087 48.3485 13.5127 48.4138 13.312L50.0238 9.154C50.0518 9.07 50.1032 9 50.1778 8.944C50.2525 8.888 50.3435 8.86 50.4508 8.86H51.6268ZM57.1332 11.625C57.1332 11.373 57.0959 11.1397 57.0212 10.925C56.9512 10.7057 56.8462 10.5167 56.7062 10.358C56.5662 10.1947 56.3912 10.0687 56.1812 9.98C55.9759 9.88667 55.7379 9.84 55.4672 9.84C54.9212 9.84 54.4919 9.99633 54.1792 10.309C53.8665 10.6217 53.6682 11.0603 53.5842 11.625H57.1332ZM53.5422 12.549C53.5609 12.955 53.6239 13.3073 53.7312 13.606C53.8385 13.9 53.9809 14.145 54.1582 14.341C54.3402 14.537 54.5549 14.684 54.8022 14.782C55.0542 14.8753 55.3342 14.922 55.6422 14.922C55.9362 14.922 56.1905 14.8893 56.4052 14.824C56.6199 14.754 56.8065 14.6793 56.9652 14.6C57.1239 14.516 57.2592 14.4413 57.3712 14.376C57.4832 14.306 57.5859 14.271 57.6792 14.271C57.8005 14.271 57.8939 14.3177 57.9592 14.411L58.3862 14.964C58.2089 15.174 58.0082 15.3513 57.7842 15.496C57.5602 15.6407 57.3222 15.7597 57.0702 15.853C56.8182 15.9417 56.5592 16.0047 56.2932 16.042C56.0272 16.084 55.7682 16.105 55.5162 16.105C55.0215 16.105 54.5619 16.0233 54.1372 15.86C53.7172 15.692 53.3509 15.447 53.0382 15.125C52.7302 14.803 52.4875 14.404 52.3102 13.928C52.1375 13.452 52.0512 12.9037 52.0512 12.283C52.0512 11.7883 52.1282 11.3263 52.2822 10.897C52.4409 10.4677 52.6649 10.0943 52.9542 9.777C53.2482 9.45967 53.6029 9.21 54.0182 9.028C54.4382 8.84133 54.9119 8.748 55.4392 8.748C55.8779 8.748 56.2839 8.82033 56.6572 8.965C57.0305 9.105 57.3525 9.31267 57.6232 9.588C57.8939 9.86333 58.1039 10.2017 58.2532 10.603C58.4072 10.9997 58.4842 11.4523 58.4842 11.961C58.4842 12.1943 58.4585 12.3507 58.4072 12.43C58.3559 12.5093 58.2625 12.549 58.1272 12.549H53.5422ZM65.81 11.17C65.3807 11.422 65.0634 11.716 64.858 12.052C64.6527 12.388 64.55 12.752 64.55 13.144C64.55 13.4193 64.599 13.6667 64.697 13.886C64.7997 14.1007 64.9327 14.2827 65.096 14.432C65.264 14.5813 65.4554 14.6957 65.67 14.775C65.8894 14.8543 66.1157 14.894 66.349 14.894C66.811 14.894 67.231 14.817 67.609 14.663C67.987 14.5043 68.323 14.292 68.617 14.026L65.81 11.17ZM72.432 16H70.969C70.8897 16 70.8174 15.9953 70.752 15.986C70.6914 15.9767 70.633 15.9627 70.577 15.944C70.5257 15.9207 70.4744 15.8903 70.423 15.853C70.3764 15.8157 70.325 15.7667 70.269 15.706L69.429 14.852C68.9857 15.244 68.4817 15.552 67.917 15.776C67.357 16 66.748 16.112 66.09 16.112C65.7074 16.112 65.3317 16.0467 64.963 15.916C64.599 15.7853 64.2724 15.5987 63.983 15.356C63.6937 15.1087 63.4604 14.81 63.283 14.46C63.1057 14.1053 63.017 13.7063 63.017 13.263C63.017 12.941 63.0684 12.6377 63.171 12.353C63.2784 12.0683 63.4254 11.8047 63.612 11.562C63.8034 11.3147 64.0274 11.093 64.284 10.897C64.5407 10.701 64.823 10.533 65.131 10.393C64.865 10.0383 64.6714 9.693 64.55 9.357C64.4287 9.021 64.368 8.68033 64.368 8.335C64.368 7.98967 64.431 7.663 64.557 7.355C64.683 7.047 64.865 6.77867 65.103 6.55C65.3457 6.32133 65.6374 6.14167 65.978 6.011C66.3234 5.87567 66.713 5.808 67.147 5.808C67.539 5.808 67.8914 5.86867 68.204 5.99C68.5214 6.11133 68.792 6.27467 69.016 6.48C69.2447 6.68533 69.422 6.921 69.548 7.187C69.6787 7.453 69.7557 7.72833 69.779 8.013L68.827 8.209C68.743 8.22767 68.6637 8.216 68.589 8.174C68.519 8.132 68.4654 8.062 68.428 7.964C68.3907 7.84267 68.337 7.72367 68.267 7.607C68.197 7.48567 68.1107 7.37833 68.008 7.285C67.9054 7.19167 67.7817 7.117 67.637 7.061C67.497 7.00033 67.3337 6.97 67.147 6.97C66.9324 6.97 66.7387 7.005 66.566 7.075C66.398 7.145 66.2534 7.243 66.132 7.369C66.0154 7.49033 65.9244 7.63267 65.859 7.796C65.7984 7.95933 65.768 8.13433 65.768 8.321C65.768 8.47033 65.7844 8.615 65.817 8.755C65.8497 8.895 65.9034 9.035 65.978 9.175C66.0527 9.315 66.146 9.45967 66.258 9.609C66.3747 9.75367 66.5147 9.91 66.678 10.078L69.457 12.941C69.625 12.633 69.758 12.3133 69.856 11.982C69.954 11.646 70.0194 11.3077 70.052 10.967C70.0614 10.869 70.094 10.792 70.15 10.736C70.206 10.6753 70.2807 10.645 70.374 10.645H71.305C71.3004 11.2283 71.2117 11.7907 71.039 12.332C70.871 12.8687 70.633 13.368 70.325 13.83L72.432 16ZM84.1892 13.753C84.2779 13.753 84.3549 13.788 84.4202 13.858L85.0712 14.565C84.6605 15.0597 84.1565 15.4423 83.5592 15.713C82.9619 15.979 82.2479 16.112 81.4172 16.112C80.6799 16.112 80.0125 15.986 79.4152 15.734C78.8225 15.4773 78.3162 15.1227 77.8962 14.67C77.4762 14.2127 77.1519 13.669 76.9232 13.039C76.6992 12.409 76.5872 11.716 76.5872 10.96C76.5872 10.204 76.7062 9.511 76.9442 8.881C77.1869 8.24633 77.5252 7.70267 77.9592 7.25C78.3979 6.79267 78.9205 6.438 79.5272 6.186C80.1385 5.934 80.8105 5.808 81.5432 5.808C82.2712 5.808 82.9129 5.927 83.4682 6.165C84.0282 6.39833 84.5135 6.711 84.9242 7.103L84.3852 7.866C84.3479 7.91733 84.3035 7.96167 84.2522 7.999C84.2009 8.03633 84.1309 8.055 84.0422 8.055C83.9489 8.055 83.8415 8.013 83.7202 7.929C83.6035 7.84033 83.4519 7.74467 83.2652 7.642C83.0832 7.53467 82.8522 7.439 82.5722 7.355C82.2969 7.26633 81.9515 7.222 81.5362 7.222C81.0555 7.222 80.6145 7.306 80.2132 7.474C79.8119 7.642 79.4665 7.887 79.1772 8.209C78.8879 8.531 78.6615 8.923 78.4982 9.385C78.3395 9.847 78.2602 10.372 78.2602 10.96C78.2602 11.5527 78.3442 12.0823 78.5122 12.549C78.6802 13.011 78.9112 13.403 79.2052 13.725C79.4992 14.0423 79.8445 14.285 80.2412 14.453C80.6379 14.621 81.0649 14.705 81.5222 14.705C81.8022 14.705 82.0519 14.691 82.2712 14.663C82.4952 14.6303 82.7005 14.5813 82.8872 14.516C83.0739 14.446 83.2489 14.3597 83.4122 14.257C83.5802 14.1543 83.7459 14.0283 83.9092 13.879C84.0025 13.795 84.0959 13.753 84.1892 13.753ZM87.7391 5.64V16H86.2341V5.64H87.7391ZM92.6837 8.748C93.211 8.748 93.687 8.83433 94.1117 9.007C94.541 9.17967 94.905 9.42467 95.2037 9.742C95.507 10.0593 95.7404 10.4443 95.9037 10.897C96.067 11.3497 96.1487 11.8583 96.1487 12.423C96.1487 12.9877 96.067 13.4963 95.9037 13.949C95.7404 14.4017 95.507 14.789 95.2037 15.111C94.905 15.4283 94.541 15.6733 94.1117 15.846C93.687 16.0187 93.211 16.105 92.6837 16.105C92.1517 16.105 91.671 16.0187 91.2417 15.846C90.817 15.6733 90.453 15.4283 90.1497 15.111C89.8464 14.789 89.613 14.4017 89.4497 13.949C89.2864 13.4963 89.2047 12.9877 89.2047 12.423C89.2047 11.8583 89.2864 11.3497 89.4497 10.897C89.613 10.4443 89.8464 10.0593 90.1497 9.742C90.453 9.42467 90.817 9.17967 91.2417 9.007C91.671 8.83433 92.1517 8.748 92.6837 8.748ZM92.6837 14.929C93.3277 14.929 93.806 14.7143 94.1187 14.285C94.436 13.851 94.5947 13.2327 94.5947 12.43C94.5947 11.6273 94.436 11.009 94.1187 10.575C93.806 10.1363 93.3277 9.917 92.6837 9.917C92.0304 9.917 91.545 10.1363 91.2277 10.575C90.9104 11.009 90.7517 11.6273 90.7517 12.43C90.7517 13.2327 90.9104 13.851 91.2277 14.285C91.545 14.7143 92.0304 14.929 92.6837 14.929ZM101.858 10.155C101.82 10.2203 101.778 10.267 101.732 10.295C101.685 10.323 101.627 10.337 101.557 10.337C101.477 10.337 101.391 10.3137 101.298 10.267C101.204 10.2157 101.095 10.1597 100.969 10.099C100.843 10.0383 100.693 9.98467 100.521 9.938C100.353 9.88667 100.154 9.861 99.9257 9.861C99.7391 9.861 99.5687 9.88433 99.4147 9.931C99.2654 9.973 99.1371 10.036 99.0297 10.12C98.9271 10.1993 98.8477 10.295 98.7917 10.407C98.7357 10.5143 98.7077 10.631 98.7077 10.757C98.7077 10.925 98.7591 11.065 98.8617 11.177C98.9644 11.289 99.0997 11.387 99.2677 11.471C99.4357 11.5503 99.6271 11.6227 99.8417 11.688C100.056 11.7533 100.276 11.8233 100.5 11.898C100.724 11.9727 100.943 12.059 101.158 12.157C101.372 12.255 101.564 12.3763 101.732 12.521C101.9 12.661 102.035 12.8337 102.138 13.039C102.24 13.2397 102.292 13.4847 102.292 13.774C102.292 14.11 102.231 14.4203 102.11 14.705C101.988 14.9897 101.811 15.237 101.578 15.447C101.344 15.657 101.053 15.8203 100.703 15.937C100.357 16.0537 99.9607 16.112 99.5127 16.112C99.2654 16.112 99.0251 16.0887 98.7917 16.042C98.5631 16 98.3437 15.9417 98.1337 15.867C97.9284 15.7877 97.7347 15.6943 97.5527 15.587C97.3754 15.4797 97.2167 15.363 97.0767 15.237L97.4267 14.663C97.4687 14.593 97.5201 14.5393 97.5807 14.502C97.6461 14.46 97.7254 14.439 97.8187 14.439C97.9167 14.439 98.0124 14.4717 98.1057 14.537C98.2037 14.5977 98.3157 14.6653 98.4417 14.74C98.5724 14.8147 98.7287 14.8847 98.9107 14.95C99.0927 15.0107 99.3191 15.041 99.5897 15.041C99.8137 15.041 100.007 15.0153 100.171 14.964C100.334 14.908 100.469 14.8333 100.577 14.74C100.684 14.6467 100.763 14.5417 100.815 14.425C100.866 14.3037 100.892 14.1753 100.892 14.04C100.892 13.858 100.84 13.7087 100.738 13.592C100.635 13.4753 100.497 13.375 100.325 13.291C100.157 13.207 99.9631 13.1323 99.7437 13.067C99.5291 13.0017 99.3097 12.9317 99.0857 12.857C98.8617 12.7823 98.6401 12.696 98.4207 12.598C98.2061 12.5 98.0124 12.3763 97.8397 12.227C97.6717 12.073 97.5364 11.8887 97.4337 11.674C97.3311 11.4547 97.2797 11.1887 97.2797 10.876C97.2797 10.5913 97.3357 10.3207 97.4477 10.064C97.5644 9.80733 97.7324 9.581 97.9517 9.385C98.1757 9.189 98.4487 9.035 98.7707 8.923C99.0974 8.80633 99.4731 8.748 99.8977 8.748C100.378 8.748 100.815 8.825 101.207 8.979C101.599 9.133 101.928 9.343 102.194 9.609L101.858 10.155ZM108.389 11.625C108.389 11.373 108.352 11.1397 108.277 10.925C108.207 10.7057 108.102 10.5167 107.962 10.358C107.822 10.1947 107.647 10.0687 107.437 9.98C107.232 9.88667 106.994 9.84 106.723 9.84C106.177 9.84 105.748 9.99633 105.435 10.309C105.122 10.6217 104.924 11.0603 104.84 11.625H108.389ZM104.798 12.549C104.817 12.955 104.88 13.3073 104.987 13.606C105.094 13.9 105.237 14.145 105.414 14.341C105.596 14.537 105.811 14.684 106.058 14.782C106.31 14.8753 106.59 14.922 106.898 14.922C107.192 14.922 107.446 14.8893 107.661 14.824C107.876 14.754 108.062 14.6793 108.221 14.6C108.38 14.516 108.515 14.4413 108.627 14.376C108.739 14.306 108.842 14.271 108.935 14.271C109.056 14.271 109.15 14.3177 109.215 14.411L109.642 14.964C109.465 15.174 109.264 15.3513 109.04 15.496C108.816 15.6407 108.578 15.7597 108.326 15.853C108.074 15.9417 107.815 16.0047 107.549 16.042C107.283 16.084 107.024 16.105 106.772 16.105C106.277 16.105 105.818 16.0233 105.393 15.86C104.973 15.692 104.607 15.447 104.294 15.125C103.986 14.803 103.743 14.404 103.566 13.928C103.393 13.452 103.307 12.9037 103.307 12.283C103.307 11.7883 103.384 11.3263 103.538 10.897C103.697 10.4677 103.921 10.0943 104.21 9.777C104.504 9.45967 104.859 9.21 105.274 9.028C105.694 8.84133 106.168 8.748 106.695 8.748C107.134 8.748 107.54 8.82033 107.913 8.965C108.286 9.105 108.608 9.31267 108.879 9.588C109.15 9.86333 109.36 10.2017 109.509 10.603C109.663 10.9997 109.74 11.4523 109.74 11.961C109.74 12.1943 109.714 12.3507 109.663 12.43C109.612 12.5093 109.518 12.549 109.383 12.549H104.798Z" fill="#22C55E"/>
</g>
<defs>
<filter id="filter0_d_38_23481" x="0" y="-1" width="113" height="26" filterUnits="userSpaceOnUse" color-interpolation-filters="sRGB">
<feFlood flood-opacity="0" result="BackgroundImageFix"/>
<feColorMatrix in="SourceAlpha" type="matrix" values="0 0 0 0 0 0 0 0 0 0 0 0 0 0 0 0 0 0 127 0" result="hardAlpha"/>
<feOffset dy="1"/>
<feGaussianBlur stdDeviation="1"/>
<feColorMatrix type="matrix" values="0 0 0 0 0.0627451 0 0 0 0 0.0941176 0 0 0 0 0.156863 0 0 0 0.05 0"/>
<feBlend mode="normal" in2="BackgroundImageFix" result="effect1_dropShadow_38_23481"/>
<feBlend mode="normal" in="SourceGraphic" in2="effect1_dropShadow_38_23481" result="shape"/>
</filter>
</defs>
</svg>
