<svg width="16" height="16" viewBox="0 0 16 16" fill="none" xmlns="http://www.w3.org/2000/svg">
<path d="M8.00024 1.83334C11.406 1.83352 14.1663 4.59459 14.1663 8.00034C14.1661 11.4059 11.4058 14.1662 8.00024 14.1664H2.66626C2.47309 14.1663 2.28708 14.0992 2.13892 13.9779L2.07739 13.9222C1.92121 13.7659 1.83325 13.5543 1.83325 13.3333V8.00034C1.83325 4.59448 4.59439 1.83334 8.00024 1.83334ZM6.00024 8.83334C5.72953 8.83334 5.46858 8.92792 5.26099 9.09799L5.17505 9.17514C4.95626 9.39393 4.83325 9.69092 4.83325 10.0003C4.83333 10.2711 4.92769 10.532 5.0979 10.7396L5.17505 10.8246C5.39384 11.0433 5.69082 11.1664 6.00024 11.1664H8.00024C8.27088 11.1663 8.53198 11.0727 8.7395 10.9027L8.82446 10.8246C9.04318 10.6058 9.16617 10.3096 9.16626 10.0003C9.16626 9.72976 9.0725 9.46862 8.90259 9.26108L8.82446 9.17514C8.60576 8.95653 8.30947 8.83343 8.00024 8.83334H6.00024ZM5.99927 6.16635C5.73928 6.16666 5.48799 6.25411 5.28442 6.41245L5.19946 6.48471C5.01027 6.66333 4.88743 6.89958 4.8479 7.15463L4.83618 7.26498C4.82093 7.52474 4.89319 7.78073 5.03931 7.9935L5.10571 8.08237C5.27269 8.28186 5.50098 8.41926 5.75317 8.47397L5.86255 8.49155L5.8772 8.4935L5.89185 8.49448L5.96997 8.49936L5.98462 8.50034H10.0002C10.2604 8.50005 10.5124 8.4128 10.7161 8.25424L10.8 8.18198C10.9892 8.00337 11.1121 7.7671 11.1516 7.51205L11.1643 7.4017C11.1795 7.14209 11.1072 6.88589 10.9612 6.67319L10.8938 6.58432C10.703 6.35638 10.4322 6.21026 10.137 6.17514L10.1223 6.17319L10.1077 6.17221L10.0295 6.16733L10.0149 6.16635H5.99927Z" fill="white" stroke="white"/>
</svg>
