<svg width="36" height="36" viewBox="0 0 36 36" fill="none" xmlns="http://www.w3.org/2000/svg">
<g filter="url(#filter0_d_510_1483)">
<rect x="6" y="3" width="24" height="24" rx="12" fill="white"/>
<rect x="6.5" y="3.5" width="23" height="23" rx="11.5" stroke="#0E253C" stroke-opacity="0.1"/>
<g clip-path="url(#clip0_510_1483)">
<path fill-rule="evenodd" clip-rule="evenodd" d="M20.4712 14.5287C20.5962 14.6537 20.6664 14.8232 20.6664 15C20.6664 15.1768 20.5962 15.3463 20.4712 15.4713L16.6999 19.2427C16.6384 19.3063 16.5648 19.3571 16.4835 19.3921C16.4022 19.427 16.3147 19.4454 16.2262 19.4462C16.1377 19.4469 16.0499 19.4301 15.9679 19.3965C15.886 19.363 15.8116 19.3135 15.749 19.2509C15.6864 19.1883 15.6369 19.1139 15.6034 19.032C15.5698 18.95 15.553 18.8623 15.5537 18.7737C15.5545 18.6852 15.5729 18.5977 15.6078 18.5164C15.6428 18.4351 15.6936 18.3615 15.7572 18.3L19.0572 15L15.7572 11.7C15.6358 11.5743 15.5686 11.4059 15.5701 11.2311C15.5716 11.0563 15.6418 10.8891 15.7654 10.7655C15.889 10.6418 16.0562 10.5717 16.231 10.5702C16.4058 10.5687 16.5742 10.6359 16.6999 10.7573L20.4712 14.5287Z" fill="#0E253C"/>
</g>
</g>
<defs>
<filter id="filter0_d_510_1483" x="0" y="0" width="36" height="36" filterUnits="userSpaceOnUse" color-interpolation-filters="sRGB">
<feFlood flood-opacity="0" result="BackgroundImageFix"/>
<feColorMatrix in="SourceAlpha" type="matrix" values="0 0 0 0 0 0 0 0 0 0 0 0 0 0 0 0 0 0 127 0" result="hardAlpha"/>
<feOffset dy="3"/>
<feGaussianBlur stdDeviation="3"/>
<feColorMatrix type="matrix" values="0 0 0 0 0 0 0 0 0 0 0 0 0 0 0 0 0 0 0.1 0"/>
<feBlend mode="normal" in2="BackgroundImageFix" result="effect1_dropShadow_510_1483"/>
<feBlend mode="normal" in="SourceGraphic" in2="effect1_dropShadow_510_1483" result="shape"/>
</filter>
<clipPath id="clip0_510_1483">
<rect width="16" height="16" fill="white" transform="translate(10 7)"/>
</clipPath>
</defs>
</svg>
