<svg width="24" height="24" viewBox="0 0 24 24" fill="none" xmlns="http://www.w3.org/2000/svg">
<rect width="24" height="24" rx="12" fill="#0E253C" fill-opacity="0.1"/>
<path d="M8.77345 11.3147C9.39146 10.5855 10.2185 10.0637 11.1427 9.81979C12.0669 9.5759 13.0437 9.62167 13.941 9.95094C14.8383 10.2802 15.6129 10.8771 16.16 11.6608C16.7072 12.4446 17.0004 13.3775 17.0001 14.3333C17.0001 14.5986 17.1055 14.8529 17.293 15.0404C17.4805 15.228 17.7349 15.3333 18.0001 15.3333C18.2653 15.3333 18.5197 15.228 18.7072 15.0404C18.8948 14.8529 19.0001 14.5986 19.0001 14.3333C19.0001 10.6513 16.0154 7.66667 12.3334 7.66667C11.4012 7.66565 10.4792 7.86069 9.62719 8.23913C8.77522 8.61757 8.01235 9.17094 7.38811 9.86333L7.15678 8.55333C7.13631 8.42194 7.08983 8.29595 7.02008 8.18274C6.95033 8.06952 6.85869 7.97136 6.75054 7.89399C6.64239 7.81662 6.51989 7.76159 6.39022 7.73213C6.26055 7.70268 6.1263 7.69938 5.99533 7.72243C5.86437 7.74549 5.73932 7.79443 5.6275 7.8664C5.51568 7.93837 5.41934 8.03191 5.34411 8.14157C5.26888 8.25122 5.21628 8.37477 5.18938 8.505C5.16248 8.63523 5.16182 8.76952 5.18745 8.9L5.88211 12.84C5.92811 13.1007 6.07545 13.3333 6.29345 13.4853C6.56211 13.6733 6.91611 13.7153 7.21678 13.62L10.9794 12.956C11.1108 12.9355 11.2368 12.8891 11.35 12.8193C11.4633 12.7495 11.5614 12.6579 11.6388 12.5498C11.7162 12.4416 11.7712 12.3191 11.8006 12.1894C11.8301 12.0598 11.8334 11.9255 11.8103 11.7946C11.7873 11.6636 11.7383 11.5385 11.6664 11.4267C11.5944 11.3149 11.5009 11.2186 11.3912 11.1433C11.2816 11.0681 11.158 11.0155 11.0278 10.9886C10.8975 10.9617 10.7633 10.961 10.6328 10.9867L8.77411 11.314L8.77345 11.3147Z" fill="#0E253C" fill-opacity="0.65"/>
</svg>
