<svg width="28" height="28" viewBox="0 0 28 28" fill="none" xmlns="http://www.w3.org/2000/svg">
<path d="M14 2.33333C15.0931 2.33333 16.1583 2.45933 17.1803 2.69616C17.3316 2.72876 17.4749 2.79113 17.6018 2.87965C17.7288 2.96816 17.8368 3.08104 17.9197 3.21173C18.0026 3.34241 18.0587 3.48827 18.0847 3.64083C18.1106 3.79339 18.106 3.9496 18.071 4.10035C18.036 4.2511 17.9714 4.39338 17.8809 4.51892C17.7904 4.64445 17.6758 4.75072 17.5439 4.83155C17.4119 4.91237 17.2652 4.96614 17.1122 4.98971C16.9593 5.01327 16.8032 5.00618 16.653 4.96883C16.0777 4.83517 15.493 4.74546 14.9041 4.70049L14.4141 4.67366L14.8108 4.69699C16.4985 4.82506 18.1296 5.36159 19.5638 6.26033L19.8823 6.468L20.5893 5.761C20.7988 5.54953 21.0811 5.42612 21.3786 5.41603C21.6761 5.40594 21.9662 5.50992 22.1895 5.7067C22.4128 5.90348 22.5525 6.17818 22.5799 6.47456C22.6073 6.77094 22.5204 7.06659 22.337 7.30099L22.2401 7.41066L21.6626 7.98816C23.2954 9.73085 24.2853 11.978 24.4691 14.359C24.6529 16.74 24.0196 19.1125 22.6736 21.0851C21.3277 23.0578 19.3495 24.5126 17.0655 25.2098C14.7814 25.9069 12.328 25.8047 10.1099 24.9199C7.8918 24.0351 6.04158 22.4206 4.86446 20.3428C3.68734 18.265 3.25367 15.848 3.63498 13.4906C4.01629 11.1332 5.1898 8.97615 6.96192 7.37539C8.73403 5.77463 10.9989 4.82576 13.3828 4.68533L13.615 4.67366L13.545 4.67483C12.9418 4.69816 12.3515 4.76816 11.7763 4.87783L11.347 4.96883C11.0476 5.03334 10.7349 4.97756 10.4763 4.81352C10.2177 4.64949 10.0339 4.39035 9.96473 4.09204C9.89551 3.79373 9.94636 3.48016 10.1063 3.21901C10.2662 2.95786 10.5225 2.77007 10.8196 2.69616C11.8416 2.45933 12.908 2.33333 14 2.33333ZM14 9.33333C13.6906 9.33333 13.3938 9.45624 13.175 9.67504C12.9562 9.89383 12.8333 10.1906 12.8333 10.5V15.1667C12.8333 15.4761 12.9562 15.7728 13.175 15.9916C13.3938 16.2104 13.6906 16.3333 14 16.3333C14.3094 16.3333 14.6061 16.2104 14.8249 15.9916C15.0437 15.7728 15.1666 15.4761 15.1666 15.1667V10.5C15.1666 10.1906 15.0437 9.89383 14.8249 9.67504C14.6061 9.45624 14.3094 9.33333 14 9.33333Z" fill="#513CCE"/>
</svg>
