<svg width="28" height="28" viewBox="0 0 28 28" fill="none" xmlns="http://www.w3.org/2000/svg">
<path fill-rule="evenodd" clip-rule="evenodd" d="M12.3503 2.45001C12.7633 2.03757 13.3159 1.79487 13.899 1.76982C14.4821 1.74477 15.0535 1.93917 15.5003 2.31468L15.6496 2.45118L17.8663 4.66668H21C21.5884 4.66679 22.1551 4.88925 22.5865 5.28949C23.0179 5.68973 23.2822 6.2382 23.3263 6.82501L23.3333 7.00001V10.1337L25.55 12.3503C25.9627 12.7634 26.2056 13.3162 26.2307 13.8996C26.2557 14.483 26.0611 15.0546 25.6853 15.5015L25.5488 15.6497L23.3321 17.8663V21C23.3323 21.5887 23.11 22.1557 22.7097 22.5873C22.3094 23.019 21.7608 23.2834 21.1738 23.3275L21 23.3333H17.8675L15.6508 25.55C15.2378 25.9628 14.6849 26.2057 14.1015 26.2307C13.5181 26.2558 12.9465 26.0612 12.4996 25.6853L12.3515 25.55L10.1348 23.3333H6.99997C6.41129 23.3335 5.8443 23.1112 5.41266 22.7109C4.98101 22.3107 4.71662 21.762 4.67247 21.175L4.66663 21V17.8663L2.44997 15.6497C2.03719 15.2366 1.7943 14.6838 1.76924 14.1004C1.74418 13.517 1.93879 12.9454 2.31463 12.4985L2.44997 12.3503L4.66663 10.1337V7.00001C4.66674 6.41154 4.8892 5.84484 5.28944 5.41344C5.68968 4.98205 6.23815 4.71781 6.82497 4.67368L6.99997 4.66668H10.1336L12.3503 2.45001ZM17.5921 10.4802L12.6408 15.4315L10.5781 13.3688C10.3592 13.1501 10.0624 13.0273 9.75289 13.0274C9.4434 13.0275 9.14664 13.1505 8.92788 13.3694C8.70912 13.5883 8.58629 13.8852 8.5864 14.1947C8.5865 14.5042 8.70955 14.8009 8.92846 15.0197L11.7331 17.8243C11.8523 17.9436 11.9938 18.0382 12.1495 18.1027C12.3053 18.1672 12.4722 18.2004 12.6408 18.2004C12.8094 18.2004 12.9763 18.1672 13.132 18.1027C13.2878 18.0382 13.4293 17.9436 13.5485 17.8243L19.2418 12.1298C19.4543 11.9098 19.5719 11.6151 19.5693 11.3092C19.5666 11.0033 19.4439 10.7107 19.2276 10.4944C19.0113 10.2781 18.7187 10.1554 18.4128 10.1527C18.1069 10.1501 17.8122 10.2677 17.5921 10.4802Z" fill="#513CCE"/>
</svg>
