<svg width="80" height="26" viewBox="0 0 80 26" fill="none" xmlns="http://www.w3.org/2000/svg">
<rect x="0.333252" width="79" height="26" rx="8" fill="#0E253C" fill-opacity="0.05"/>
<rect x="0.833252" y="0.5" width="78" height="25" rx="7.5" stroke="#0E253C" stroke-opacity="0.1"/>
<g clip-path="url(#clip0_38_22754)">
<path d="M45.1938 13.5142C45.1938 11.9342 44.5147 10.5381 42.2179 10.5381C41.0395 10.5381 40.1034 10.8726 39.5959 11.1654L39.9679 12.433C40.4351 12.1411 41.1807 11.9006 41.8845 11.9006C43.0472 11.899 43.2377 12.5541 43.2377 12.9753V13.0767C40.6995 13.0726 39.095 13.9461 39.095 15.7249C39.095 16.8118 39.9096 17.8309 41.3335 17.8309C42.2023 17.8309 42.9364 17.4816 43.3749 16.9304H43.4176C43.4176 16.9304 43.7067 18.1351 45.3055 17.6746C45.2242 17.17 45.1938 16.6384 45.1938 15.9923V13.5142ZM43.3002 15.1827C43.3002 15.3102 43.2895 15.4427 43.2517 15.5564C43.1055 16.043 42.6014 16.4503 41.974 16.4503C41.4444 16.4503 41.0288 16.1518 41.0288 15.5262C41.0288 14.5693 42.0897 14.3059 43.3002 14.3125" fill="#0071CE"/>
<path d="M6.33325 8.38843C6.33325 8.38843 7.99117 15.1439 8.25478 16.2381C8.56517 17.5173 9.12111 17.99 10.7257 17.6751L11.762 13.4861C12.0239 12.4482 12.2021 11.704 12.3713 10.6465H12.4C12.5174 11.7146 12.6866 12.4482 12.9009 13.4894C12.9009 13.4894 13.3238 15.3925 13.5431 16.3895C13.7566 17.3864 14.3577 18.0153 15.9319 17.6751L18.3987 8.38843H16.4073L15.5607 12.4057C15.3365 13.5695 15.1329 14.4863 14.9744 15.5528H14.9456C14.8028 14.4978 14.6213 13.6186 14.3881 12.4785L13.5111 8.38843H11.4335L10.4974 12.3738C10.2305 13.5908 9.98086 14.5665 9.82401 15.5994H9.79692C9.63516 14.6303 9.41591 13.3961 9.1835 12.225C9.1835 12.225 8.62757 9.37149 8.43133 8.38843" fill="#0071CE"/>
<path d="M23.9481 13.5145C23.9481 11.9344 23.2673 10.5383 20.9705 10.5383C19.7954 10.5383 18.8577 10.8728 18.3502 11.1656L18.7222 12.4333C19.1878 12.1413 19.9326 11.9009 20.6388 11.9009C21.8016 11.8992 21.9921 12.5543 21.9921 12.9755V13.0769C19.4539 13.0728 17.8477 13.9463 17.8477 15.7251C17.8477 16.8121 18.6655 17.8311 20.0829 17.8311C20.9598 17.8311 21.6874 17.4819 22.1259 16.9306H22.1702C22.1702 16.9306 22.4609 18.1353 24.0581 17.6749C23.976 17.1703 23.9481 16.6387 23.9481 15.9926V13.5145ZM22.0529 15.1829C22.0529 15.3105 22.0422 15.443 22.006 15.5567C21.8582 16.0433 21.354 16.4506 20.725 16.4506C20.1986 16.4506 19.7815 16.1521 19.7815 15.5264C19.7815 14.5695 20.8424 14.3062 22.0529 14.3127" fill="#0071CE"/>
<path d="M24.9819 8.3884V17.6718H26.8772V15.7032V8.3884H24.9819Z" fill="#0071CE"/>
<path d="M51.01 8.38818V15.2377C51.01 16.1831 51.1882 16.8423 51.5717 17.2463C51.9084 17.6004 52.4593 17.8311 53.1154 17.8311C53.6788 17.8311 54.2298 17.7231 54.4901 17.6291L54.4671 16.1545C54.2725 16.1995 54.0499 16.2379 53.7445 16.2379C53.0974 16.2379 52.8839 15.8298 52.8839 14.9809V12.3588H54.5345V10.5849H52.8839V8.38818" fill="#0071CE"/>
<path d="M46.1116 10.6993V17.6748H48.0709V14.1024C48.0709 13.9102 48.0831 13.7442 48.1136 13.5904C48.2597 12.8372 48.8337 12.3604 49.6606 12.3604C49.8914 12.3604 50.0482 12.3857 50.2223 12.4127V10.584C50.0761 10.5579 49.9768 10.5439 49.7969 10.5439C49.0636 10.5439 48.2326 11.0077 47.882 12.0177H47.8335V10.6993" fill="#0071CE"/>
<path d="M27.9778 10.6993V17.6748H29.887V13.5806C29.887 13.3884 29.9083 13.1921 29.9765 13.0147C30.1317 12.6 30.5168 12.1199 31.1351 12.1199C31.9037 12.1199 32.2667 12.766 32.2667 13.6984V17.6748H34.171V13.5316C34.171 13.3508 34.1965 13.1292 34.2498 12.9689C34.4026 12.4986 34.8197 12.1199 35.3962 12.1199C36.173 12.1199 36.5491 12.7521 36.5491 13.8513V17.6748H38.4517V13.5618C38.4517 11.4011 37.3481 10.5439 36.095 10.5439C35.544 10.5439 35.1055 10.6789 34.7113 10.921C34.3779 11.1246 34.0856 11.4117 33.8236 11.7871H33.7949C33.4935 11.0363 32.7857 10.5439 31.861 10.5439C30.6753 10.5439 30.1366 11.1402 29.8196 11.644H29.7909V10.6993" fill="#0071CE"/>
<path d="M64.7878 10.3864C65.1623 10.3864 65.4776 10.1917 65.5186 9.94145L65.8898 5.75406C65.8898 5.33941 65.3996 5 64.7878 5C64.1728 5 63.6858 5.33941 63.6858 5.75406L64.0602 9.94145C64.0997 10.1917 64.4133 10.3864 64.7878 10.3864Z" fill="#FFC220"/>
<path d="M62.5113 11.6968C62.6968 11.3696 62.6861 11.0065 62.4858 10.8446L59.0205 8.4311C58.66 8.22173 58.1204 8.47117 57.8117 8.9995C57.5038 9.52701 57.5662 10.1191 57.9193 10.3244L61.7558 12.0959C62.0013 12.1875 62.3224 12.0174 62.5113 11.6935" fill="#FFC220"/>
<path d="M67.0651 11.6932C67.2613 12.0171 67.5824 12.1872 67.8214 12.1005L71.6579 10.3241C72.0143 10.1147 72.0676 9.52834 71.7663 9.00082C71.4583 8.47249 70.9155 8.22469 70.5559 8.42997L67.0897 10.841C66.8975 11.0054 66.8836 11.3701 67.0692 11.6965" fill="#FFC220"/>
<path d="M64.7878 15.6167C65.1623 15.6167 65.4776 15.8113 65.5186 16.0616L65.8898 20.249C65.8898 20.6637 65.3996 20.9998 64.7878 20.9998C64.1728 20.9998 63.6858 20.6637 63.6858 20.249L64.0602 16.0616C64.0997 15.8113 64.4133 15.6167 64.7878 15.6167Z" fill="#FFC220"/>
<path d="M67.0651 14.3103C67.2613 13.9856 67.5824 13.8122 67.8214 13.9063L71.6579 15.6794C72.0143 15.8847 72.0676 16.476 71.7663 17.0043C71.4583 17.5285 70.9155 17.778 70.5559 17.5727L67.0897 15.1584C66.8975 14.9957 66.8836 14.6325 67.0692 14.3103" fill="#FFC220"/>
<path d="M62.5113 14.3066C62.6968 14.6329 62.6861 14.9952 62.4858 15.1588L59.0205 17.569C58.66 17.7783 58.1204 17.5281 57.8117 17.0038C57.5038 16.4763 57.5662 15.8842 57.9193 15.6789L61.7558 13.9058C62.0013 13.8126 62.3224 13.9843 62.5113 14.3066Z" fill="#FFC220"/>
<path d="M72.7801 17.2052H72.8278C72.8926 17.2052 72.9189 17.2257 72.9263 17.2772C72.9402 17.3345 72.9476 17.3729 72.9616 17.3893H73.0848C73.0741 17.377 73.0601 17.3459 73.0527 17.2739C73.0388 17.2118 73.0067 17.1766 72.9616 17.1643V17.1529C73.024 17.139 73.0601 17.0973 73.0601 17.0458C73.0601 16.9991 73.0388 16.9656 73.0174 16.9443C72.9764 16.9247 72.937 16.9092 72.8499 16.9092C72.7727 16.9092 72.716 16.9157 72.6709 16.9263V17.3893H72.7801V17.2052ZM72.7834 16.9942L72.8392 16.9869C72.9049 16.9869 72.9402 17.0171 72.9402 17.0597C72.9402 17.1071 72.8926 17.1292 72.8319 17.1292H72.7834V16.9942ZM72.8532 16.6802C72.5839 16.6802 72.3704 16.8895 72.3704 17.1464C72.3704 17.4097 72.5839 17.6191 72.8532 17.6191C73.1258 17.6191 73.3328 17.4097 73.3328 17.1464C73.3328 16.8895 73.1258 16.6802 72.8532 16.6802ZM72.8532 16.7742C73.0601 16.7742 73.2137 16.9411 73.2137 17.1464C73.2137 17.3533 73.0601 17.525 72.8532 17.5217C72.6463 17.5217 72.4894 17.3533 72.4894 17.1464C72.4894 16.9411 72.6463 16.7742 72.8499 16.7742" fill="#FFC220"/>
</g>
<defs>
<clipPath id="clip0_38_22754">
<rect width="67" height="16" fill="white" transform="translate(6.33325 5)"/>
</clipPath>
</defs>
</svg>
